name Walk3.mot
datacolumns 19
datarows 25
range 4.07800000 4.10200000
endheader

                time	   L_ground_force_vx	   L_ground_force_vy	   L_ground_force_vz	   L_ground_force_px	   L_ground_force_py	   L_ground_force_pz	   R_ground_force_vx	   R_ground_force_vy	   R_ground_force_vz	   R_ground_force_px	   R_ground_force_py	   R_ground_force_pz	   L_ground_torque_x	   L_ground_torque_y	   L_ground_torque_z	   R_ground_torque_x	   R_ground_torque_y	   R_ground_torque_z	
          4.07800000	          0.00000000	          0.00000000	          0.00000000	          0.00000000	          0.00000000	          0.00000000	         42.53017602	        954.88601502	         69.16031517	         -0.25951090	          0.00000000	         -0.07827261	          0.00000000	          0.00000000	          0.00000000	          0.00000000	          0.22917842	          0.00000000	
          4.07900000	          0.00000000	          0.00000000	          0.00000000	          0.00000000	          0.00000000	          0.00000000	         42.64898551	        956.08372163	         69.38903092	         -0.25916820	          0.00000000	         -0.07828217	          0.00000000	          0.00000000	          0.00000000	          0.00000000	          0.28685007	          0.00000000	
          4.08000000	          0.00000000	          0.00000000	          0.00000000	          0.00000000	          0.00000000	          0.00000000	         42.86346118	        957.35330005	         69.65484082	         -0.25881634	          0.00000000	         -0.07826357	          0.00000000	          0.00000000	          0.00000000	          0.00000000	          0.30753633	          0.00000000	
          4.08100000	          0.00000000	          0.00000000	          0.00000000	          0.00000000	          0.00000000	          0.00000000	         43.19312450	        958.68511663	         69.92719823	         -0.25844104	          0.00000000	         -0.07825509	          0.00000000	          0.00000000	          0.00000000	          0.00000000	          0.29289417	          0.00000000	
          4.08200000	          0.00000000	          0.00000000	          0.00000000	          0.00000000	          0.00000000	          0.00000000	         43.60797376	        960.02418108	         70.18513547	         -0.25803323	          0.00000000	         -0.07827954	          0.00000000	          0.00000000	          0.00000000	          0.00000000	          0.25891148	          0.00000000	
          4.08300000	          0.00000000	          0.00000000	          0.00000000	          0.00000000	          0.00000000	          0.00000000	         44.04869895	        961.32856759	         70.41458451	         -0.25759442	          0.00000000	         -0.07832005	          0.00000000	          0.00000000	          0.00000000	          0.00000000	          0.22768793	          0.00000000	
          4.08400000	          0.00000000	          0.00000000	          0.00000000	          0.00000000	          0.00000000	          0.00000000	         44.45531165	        962.58706015	         70.60763255	         -0.25713827	          0.00000000	         -0.07834695	          0.00000000	          0.00000000	          0.00000000	          0.00000000	          0.21528613	          0.00000000	
          4.08500000	          0.00000000	          0.00000000	          0.00000000	          0.00000000	          0.00000000	          0.00000000	         44.79308454	        963.82103362	         70.77298715	         -0.25668605	          0.00000000	         -0.07834796	          0.00000000	          0.00000000	          0.00000000	          0.00000000	          0.22589427	          0.00000000	
          4.08600000	          0.00000000	          0.00000000	          0.00000000	          0.00000000	          0.00000000	          0.00000000	         45.06414556	        965.07238489	         70.93659459	         -0.25625445	          0.00000000	         -0.07832775	          0.00000000	          0.00000000	          0.00000000	          0.00000000	          0.25551246	          0.00000000	
          4.08700000	          0.00000000	          0.00000000	          0.00000000	          0.00000000	          0.00000000	          0.00000000	         45.29350779	        966.37567972	         71.12902693	         -0.25584809	          0.00000000	         -0.07829750	          0.00000000	          0.00000000	          0.00000000	          0.00000000	          0.29700637	          0.00000000	
          4.08800000	          0.00000000	          0.00000000	          0.00000000	          0.00000000	          0.00000000	          0.00000000	         45.51305952	        967.73136634	         71.37187247	         -0.25546171	          0.00000000	         -0.07827052	          0.00000000	          0.00000000	          0.00000000	          0.00000000	          0.34100299	          0.00000000	
          4.08900000	          0.00000000	          0.00000000	          0.00000000	          0.00000000	          0.00000000	          0.00000000	         45.75683588	        969.09026411	         71.66790808	         -0.25508178	          0.00000000	         -0.07825832	          0.00000000	          0.00000000	          0.00000000	          0.00000000	          0.37772069	          0.00000000	
          4.09000000	          0.00000000	          0.00000000	          0.00000000	          0.00000000	          0.00000000	          0.00000000	         46.05375146	        970.38547673	         71.99839182	         -0.25469415	          0.00000000	         -0.07826618	          0.00000000	          0.00000000	          0.00000000	          0.00000000	          0.40091133	          0.00000000	
          4.09100000	          0.00000000	          0.00000000	          0.00000000	          0.00000000	          0.00000000	          0.00000000	         46.41877881	        971.60016051	         72.32946721	         -0.25429647	          0.00000000	         -0.07829307	          0.00000000	          0.00000000	          0.00000000	          0.00000000	          0.41041558	          0.00000000	
          4.09200000	          0.00000000	          0.00000000	          0.00000000	          0.00000000	          0.00000000	          0.00000000	         46.84822511	        972.76890729	         72.62503771	         -0.25389400	          0.00000000	         -0.07833558	          0.00000000	          0.00000000	          0.00000000	          0.00000000	          0.41345239	          0.00000000	
          4.09300000	          0.00000000	          0.00000000	          0.00000000	          0.00000000	          0.00000000	          0.00000000	         47.31824279	        973.92168865	         72.86287402	         -0.25348855	          0.00000000	         -0.07839312	          0.00000000	          0.00000000	          0.00000000	          0.00000000	          0.42122335	          0.00000000	
          4.09400000	          0.00000000	          0.00000000	          0.00000000	          0.00000000	          0.00000000	          0.00000000	         47.79189037	        975.07900632	         73.04499609	         -0.25308261	          0.00000000	         -0.07846619	          0.00000000	          0.00000000	          0.00000000	          0.00000000	          0.44181384	          0.00000000	
          4.09500000	          0.00000000	          0.00000000	          0.00000000	          0.00000000	          0.00000000	          0.00000000	         48.23651328	        976.26550785	         73.19187909	         -0.25268257	          0.00000000	         -0.07854819	          0.00000000	          0.00000000	          0.00000000	          0.00000000	          0.47841867	          0.00000000	
          4.09600000	          0.00000000	          0.00000000	          0.00000000	          0.00000000	          0.00000000	          0.00000000	         48.63829308	        977.48235471	         73.32915984	         -0.25228885	          0.00000000	         -0.07862688	          0.00000000	          0.00000000	          0.00000000	          0.00000000	          0.53140492	          0.00000000	
          4.09700000	          0.00000000	          0.00000000	          0.00000000	          0.00000000	          0.00000000	          0.00000000	         49.00438716	        978.69830430	         73.48234565	         -0.25189330	          0.00000000	         -0.07869174	          0.00000000	          0.00000000	          0.00000000	          0.00000000	          0.59606379	          0.00000000	
          4.09800000	          0.00000000	          0.00000000	          0.00000000	          0.00000000	          0.00000000	          0.00000000	         49.35762736	        979.88709876	         73.67726484	         -0.25149170	          0.00000000	         -0.07873308	          0.00000000	          0.00000000	          0.00000000	          0.00000000	          0.65904613	          0.00000000	
          4.09900000	          0.00000000	          0.00000000	          0.00000000	          0.00000000	          0.00000000	          0.00000000	         49.72524983	        981.05585733	         73.93364712	         -0.25109125	          0.00000000	         -0.07874001	          0.00000000	          0.00000000	          0.00000000	          0.00000000	          0.70433906	          0.00000000	
          4.10000000	          0.00000000	          0.00000000	          0.00000000	          0.00000000	          0.00000000	          0.00000000	         50.12723682	        982.22041203	         74.25098426	         -0.25070028	          0.00000000	         -0.07870885	          0.00000000	          0.00000000	          0.00000000	          0.00000000	          0.72590866	          0.00000000	
          4.10100000	          0.00000000	          0.00000000	          0.00000000	          0.00000000	          0.00000000	          0.00000000	         50.57590879	        983.37207783	         74.60417303	         -0.25031599	          0.00000000	         -0.07865238	          0.00000000	          0.00000000	          0.00000000	          0.00000000	          0.73084018	          0.00000000	
          4.10200000	          0.00000000	          0.00000000	          0.00000000	          0.00000000	          0.00000000	          0.00000000	         51.07647838	        984.49351355	         74.95345123	         -0.24992958	          0.00000000	         -0.07859781	          0.00000000	          0.00000000	          0.00000000	          0.00000000	          0.73183699	          0.00000000	
